<svg width="24" height="24" viewBox="0 0 24 24" fill="none" xmlns="http://www.w3.org/2000/svg">
<g clip-path="url(#clip0_1_137)">
<path d="M14.5003 21.5002C14.3723 21.5002 14.2442 21.4512 14.1462 21.3542C13.9513 21.1592 13.9513 20.8422 14.1462 20.6472L22.7932 12.0002L14.1473 3.35423C13.9523 3.15923 13.9523 2.84223 14.1473 2.64723C14.3423 2.45223 14.6593 2.45223 14.8543 2.64723L23.8542 11.6472C24.0492 11.8422 24.0492 12.1592 23.8542 12.3542L14.8543 21.3542C14.7563 21.4512 14.6283 21.5002 14.5003 21.5002Z" fill="#4196B8"/>
<path d="M23.5 12.5H0.5C0.224 12.5 0 12.276 0 12C0 11.724 0.224 11.5 0.5 11.5H23.5C23.776 11.5 24 11.724 24 12C24 12.276 23.776 12.5 23.5 12.5Z" fill="#4196B8"/>
</g>
<defs>
<clipPath id="clip0_1_137">
<rect width="24" height="24" fill="white"/>
</clipPath>
</defs>
</svg>
